<svg width="17" height="18" viewBox="0 0 17 18" fill="none" xmlns="http://www.w3.org/2000/svg">
<path d="M6.61029 17.7667C2.77695 17.7667 0.110287 16.1 0.110287 12.7667C0.110287 10.0667 2.04362 8.1 6.41029 8.1H11.777V7C11.777 5 10.6436 4.2 8.31029 4.2C6.41029 4.2 5.31029 5 5.31029 6.33333C5.31029 6.43333 5.31029 6.7 5.34362 7.03333H0.676953C0.64362 6.76667 0.610287 6.4 0.610287 6.06667C0.610287 2.73333 3.54362 0.766666 8.54362 0.766666C13.777 0.766666 16.8436 3.1 16.8436 7.5V17.5H11.777C11.877 16.6667 12.0103 15.1667 12.0103 14.1667H11.977C11.477 16.5 9.61029 17.7667 6.61029 17.7667ZM7.61029 14.3333C10.2436 14.3333 11.777 13.1667 11.777 11.1667V10.8333H6.87695C5.51029 10.8333 4.67695 11.4667 4.67695 12.4C4.67695 13.6667 5.77695 14.3333 7.61029 14.3333Z" fill="#EAF2EF"/>
</svg>
